<svg width="224" height="249" viewBox="0 0 224 249" fill="none" xmlns="http://www.w3.org/2000/svg">
<g opacity="0.35" filter="url(#filter0_d)">
<mask id="mask0" style="mask-type:alpha" maskUnits="userSpaceOnUse" x="4" y="-111" width="459" height="352">
<path d="M124.966 241C117.601 241 110.493 240.83 103.68 240.489C66.277 238.619 38.9201 231.79 22.3698 220.19C5.43681 208.326 0.332851 191.677 7.19736 170.704C28.0397 107.034 48.491 67.5721 62.0232 41.4618C68.1141 29.7093 72.9255 20.4254 75.5417 13.129L75.9272 13.2684L75.5417 13.129C79.8939 0.985527 98.6066 -15.1356 124.375 -28.9466C152.107 -43.8074 181.801 -52.807 205.847 -53.6353C239.011 -54.778 275.042 -64.3271 299.427 -72.1375C327.834 -81.2355 357.271 -93.4363 378.171 -104.776C391.662 -112.097 405.478 -112.346 418.122 -105.498C440.014 -93.6386 455.572 -62.0799 458.724 -23.14C460.217 -4.68433 461.761 14.4029 462.108 32.8203C462.494 53.1842 461.324 70.5163 458.535 85.8063C455.203 104.062 449.539 119.968 441.22 134.427C431.93 150.569 419.56 164.572 403.401 177.235C375.803 198.862 299.591 222.112 218.07 233.777C184.72 238.551 152.979 241 124.966 241ZM399.155 -109.628C392.345 -109.628 385.412 -107.769 378.562 -104.052C357.618 -92.6873 328.129 -80.4646 299.678 -71.3529C275.244 -63.5261 239.134 -53.9579 205.874 -52.8124C181.951 -51.9868 152.385 -43.0255 124.761 -28.2194C99.1643 -14.5013 80.5992 1.45027 76.3127 13.4105C73.6773 20.7617 68.8549 30.0647 62.7504 41.8445C49.2291 67.9329 28.7996 107.357 7.97649 170.963C1.23773 191.551 6.2378 207.889 22.84 219.523C39.2618 231.03 66.4738 237.81 103.721 239.674C136.387 241.309 175.888 238.991 217.952 232.971C299.348 221.325 375.399 198.143 402.895 176.595C418.969 163.998 431.271 150.075 440.509 134.022C448.781 119.645 454.416 103.827 457.729 85.6642C463.948 51.5877 460.875 13.6347 457.907 -23.069C454.779 -61.7355 439.385 -93.0427 417.731 -104.771C411.755 -108.01 405.506 -109.628 399.155 -109.628Z" fill="#7456AB"/>
</mask>
<g mask="url(#mask0)">
<path d="M124.966 241C117.601 241 110.493 240.83 103.68 240.489C66.277 238.619 38.9201 231.79 22.3698 220.19C5.43681 208.326 0.332851 191.677 7.19736 170.704C28.0397 107.034 48.491 67.5721 62.0232 41.4618C68.1141 29.7093 72.9255 20.4254 75.5417 13.129L75.9272 13.2684L75.5417 13.129C79.8939 0.985527 98.6066 -15.1356 124.375 -28.9466C152.107 -43.8074 181.801 -52.807 205.847 -53.6353C239.011 -54.778 275.042 -64.3271 299.427 -72.1375C327.834 -81.2355 357.271 -93.4363 378.171 -104.776C391.662 -112.097 405.478 -112.346 418.122 -105.498C440.014 -93.6386 455.572 -62.0799 458.724 -23.14C460.217 -4.68433 461.761 14.4029 462.108 32.8203C462.494 53.1842 461.324 70.5163 458.535 85.8063C455.203 104.062 449.539 119.968 441.22 134.427C431.93 150.569 419.56 164.572 403.401 177.235C375.803 198.862 299.591 222.112 218.07 233.777C184.72 238.551 152.979 241 124.966 241ZM399.155 -109.628C392.345 -109.628 385.412 -107.769 378.562 -104.052C357.618 -92.6873 328.129 -80.4646 299.678 -71.3529C275.244 -63.5261 239.134 -53.9579 205.874 -52.8124C181.951 -51.9868 152.385 -43.0255 124.761 -28.2194C99.1643 -14.5013 80.5992 1.45027 76.3127 13.4105C73.6773 20.7617 68.8549 30.0647 62.7504 41.8445C49.2291 67.9329 28.7996 107.357 7.97649 170.963C1.23773 191.551 6.2378 207.889 22.84 219.523C39.2618 231.03 66.4738 237.81 103.721 239.674C136.387 241.309 175.888 238.991 217.952 232.971C299.348 221.325 375.399 198.143 402.895 176.595C418.969 163.998 431.271 150.075 440.509 134.022C448.781 119.645 454.416 103.827 457.729 85.6642C463.948 51.5877 460.875 13.6347 457.907 -23.069C454.779 -61.7355 439.385 -93.0427 417.731 -104.771C411.755 -108.01 405.506 -109.628 399.155 -109.628Z" fill="#A06BFF"/>
</g>
<mask id="mask1" style="mask-type:alpha" maskUnits="userSpaceOnUse" x="21" y="-99" width="422" height="327">
<path d="M129.526 227.194C123.7 227.194 118.057 227.077 112.617 226.839C78.3083 225.338 53.215 219.267 38.0289 208.791C22.6787 198.2 17.9384 183.298 23.939 164.498C41.6457 107.581 60.1369 69.8083 72.3706 44.8162C78.1142 33.0828 82.6495 23.8153 85.2548 16.4259C89.4703 4.48206 106.819 -11.043 130.532 -24.0941C155.923 -38.0691 183.55 -46.6723 206.331 -47.7002C236.922 -48.9031 270.107 -57.5008 292.557 -64.4992C318.932 -72.7224 345.327 -83.2967 364.975 -93.5155C377.375 -99.9618 390.054 -99.9809 401.645 -93.5702C421.766 -82.4437 436.069 -53.4083 438.97 -17.79C441.739 15.8108 444.604 50.5571 438.737 82.4739C435.648 99.2839 430.421 113.945 422.758 127.294C414.213 142.185 402.851 155.116 388.034 166.827C362.659 187.016 292.576 208.908 217.608 220.068C185.981 224.77 155.898 227.194 129.526 227.194ZM383.668 -97.5888C377.602 -97.5888 371.435 -96.0033 365.333 -92.8321C345.647 -82.5941 319.206 -71.998 292.789 -63.7639C270.293 -56.7517 237.039 -48.1376 206.366 -46.9293C183.701 -45.9068 156.196 -37.3392 130.906 -23.4188C107.352 -10.4553 90.1401 4.91129 85.9847 16.6829C83.3658 24.1161 78.8195 33.3999 73.0677 45.1552C60.8422 70.1282 42.3701 107.865 24.6799 164.73C18.794 183.172 23.4333 197.782 38.4718 208.156C53.5348 218.548 78.4942 224.573 112.655 226.068C142.675 227.383 178.93 225.04 217.501 219.299C292.349 208.159 362.279 186.333 387.561 166.218C402.304 154.569 413.6 141.709 422.097 126.906C429.716 113.633 434.913 99.0543 437.986 82.329C443.833 50.5134 440.974 15.819 438.207 -17.7326C435.326 -53.0967 421.176 -81.897 401.276 -92.9004C395.617 -96.0251 389.693 -97.5888 383.668 -97.5888Z" fill="#7456AB"/>
</mask>
<g mask="url(#mask1)">
<path d="M129.526 227.194C123.7 227.194 118.057 227.077 112.617 226.839C78.3083 225.338 53.215 219.267 38.0289 208.791C22.6787 198.2 17.9384 183.298 23.939 164.498C41.6457 107.581 60.1369 69.8083 72.3706 44.8162C78.1142 33.0828 82.6495 23.8153 85.2548 16.4259C89.4703 4.48206 106.819 -11.043 130.532 -24.0941C155.923 -38.0691 183.55 -46.6723 206.331 -47.7002C236.922 -48.9031 270.107 -57.5008 292.557 -64.4992C318.932 -72.7224 345.327 -83.2967 364.975 -93.5155C377.375 -99.9618 390.054 -99.9809 401.645 -93.5702C421.766 -82.4437 436.069 -53.4083 438.97 -17.79C441.739 15.8108 444.604 50.5571 438.737 82.4739C435.648 99.2839 430.421 113.945 422.758 127.294C414.213 142.185 402.851 155.116 388.034 166.827C362.659 187.016 292.576 208.908 217.608 220.068C185.981 224.77 155.898 227.194 129.526 227.194ZM383.668 -97.5888C377.602 -97.5888 371.435 -96.0033 365.333 -92.8321C345.647 -82.5941 319.206 -71.998 292.789 -63.7639C270.293 -56.7517 237.039 -48.1376 206.366 -46.9293C183.701 -45.9068 156.196 -37.3392 130.906 -23.4188C107.352 -10.4553 90.1401 4.91129 85.9847 16.6829C83.3658 24.1161 78.8195 33.3999 73.0677 45.1552C60.8422 70.1282 42.3701 107.865 24.6799 164.73C18.794 183.172 23.4333 197.782 38.4718 208.156C53.5348 218.548 78.4942 224.573 112.655 226.068C142.675 227.383 178.93 225.04 217.501 219.299C292.349 208.159 362.279 186.333 387.561 166.218C402.304 154.569 413.6 141.709 422.097 126.906C429.716 113.633 434.913 99.0543 437.986 82.329C443.833 50.5134 440.974 15.819 438.207 -17.7326C435.326 -53.0967 421.176 -81.897 401.276 -92.9004C395.617 -96.0251 389.693 -97.5888 383.668 -97.5888Z" fill="#A06BFF"/>
</g>
<mask id="mask2" style="mask-type:alpha" maskUnits="userSpaceOnUse" x="38" y="-87" width="385" height="301">
<path d="M134.135 213.416C129.821 213.416 125.624 213.342 121.548 213.195C90.3341 212.066 67.5016 206.748 53.6851 197.396C39.9179 188.079 35.5438 174.922 40.686 158.29C55.3746 107.758 71.3207 73.0395 82.9639 47.6919C88.2482 36.1882 92.42 27.1012 94.9761 19.7172C99.1177 7.7925 114.714 -6.77305 136.696 -19.2473C159.756 -32.3338 185.316 -40.5406 206.823 -41.7681C257.606 -44.059 321.335 -67.2387 351.784 -82.258C363.094 -87.8295 374.641 -87.619 385.183 -81.6457C403.529 -71.2519 416.572 -44.737 419.224 -12.4456C421.67 16.5871 424.44 49.4935 418.947 79.1331C416.099 94.4969 411.312 107.914 404.308 120.153C396.503 133.792 386.156 145.651 372.676 156.411C361.057 165.818 339.649 175.641 310.769 184.813C283.03 193.624 249.779 201.273 217.148 206.355C187.246 211.008 158.837 213.416 134.135 213.416ZM368.165 -85.5632C362.848 -85.5632 357.448 -84.2482 352.101 -81.6129C321.6 -66.5662 257.748 -43.3455 206.859 -41.0491C185.461 -39.8271 160.015 -31.6531 137.049 -18.6212C115.217 -6.23175 99.741 8.1889 95.654 19.9523C93.087 27.3691 88.9071 36.4698 83.6145 47.9927C71.9823 73.3211 56.0499 108.013 41.3722 158.497C36.3339 174.796 40.6122 187.68 54.087 196.8C67.7914 206.076 90.4954 211.349 121.573 212.473C148.946 213.463 181.959 211.101 217.034 205.638C249.631 200.562 282.841 192.921 310.548 184.121C339.34 174.977 360.666 165.201 372.219 155.846C385.631 145.143 395.921 133.349 403.677 119.793C410.639 107.624 415.402 94.2809 418.234 78.9991C423.71 49.4552 420.943 16.598 418.499 -12.3882C415.866 -44.4417 402.963 -70.7406 384.822 -81.0196C379.483 -84.0486 373.87 -85.5632 368.165 -85.5632Z" fill="#7456AB"/>
</mask>
<g mask="url(#mask2)">
<path d="M134.135 213.416C129.821 213.416 125.624 213.342 121.548 213.195C90.3341 212.066 67.5016 206.748 53.6851 197.396C39.9179 188.079 35.5438 174.922 40.686 158.29C55.3746 107.758 71.3207 73.0395 82.9639 47.6919C88.2482 36.1882 92.42 27.1012 94.9761 19.7172C99.1177 7.7925 114.714 -6.77305 136.696 -19.2473C159.756 -32.3338 185.316 -40.5406 206.823 -41.7681C257.606 -44.059 321.335 -67.2387 351.784 -82.258C363.094 -87.8295 374.641 -87.619 385.183 -81.6457C403.529 -71.2519 416.572 -44.737 419.224 -12.4456C421.67 16.5871 424.44 49.4935 418.947 79.1331C416.099 94.4969 411.312 107.914 404.308 120.153C396.503 133.792 386.156 145.651 372.676 156.411C361.057 165.818 339.649 175.641 310.769 184.813C283.03 193.624 249.779 201.273 217.148 206.355C187.246 211.008 158.837 213.416 134.135 213.416ZM368.165 -85.5632C362.848 -85.5632 357.448 -84.2482 352.101 -81.6129C321.6 -66.5662 257.748 -43.3455 206.859 -41.0491C185.461 -39.8271 160.015 -31.6531 137.049 -18.6212C115.217 -6.23175 99.741 8.1889 95.654 19.9523C93.087 27.3691 88.9071 36.4698 83.6145 47.9927C71.9823 73.3211 56.0499 108.013 41.3722 158.497C36.3339 174.796 40.6122 187.68 54.087 196.8C67.7914 206.076 90.4954 211.349 121.573 212.473C148.946 213.463 181.959 211.101 217.034 205.638C249.631 200.562 282.841 192.921 310.548 184.121C339.34 174.977 360.666 165.201 372.219 155.846C385.631 145.143 395.921 133.349 403.677 119.793C410.639 107.624 415.402 94.2809 418.234 78.9991C423.71 49.4552 420.943 16.598 418.499 -12.3882C415.866 -44.4417 402.963 -70.7406 384.822 -81.0196C379.483 -84.0486 373.87 -85.5632 368.165 -85.5632Z" fill="#A06BFF"/>
</g>
<mask id="mask3" style="mask-type:alpha" maskUnits="userSpaceOnUse" x="55" y="-75" width="348" height="275">
<path d="M138.804 199.676C135.963 199.676 133.186 199.641 130.463 199.567C102.343 198.807 81.7746 194.25 69.325 186.021C57.146 177.97 53.1437 166.554 57.4276 152.089C69.2183 107.474 83.475 74.1195 93.8852 49.7671C98.3713 39.2721 102.245 30.2096 104.692 23.0143C108.7 11.281 122.967 -2.70228 142.853 -14.3946C163.591 -26.5873 187.085 -34.4031 207.309 -35.8329C227.436 -36.8799 252.162 -41.5109 278.825 -49.2256C300.225 -55.4176 322.008 -63.3538 338.591 -70.9974C348.81 -75.6995 359.231 -75.2566 368.725 -69.7125C385.289 -60.0432 397.069 -36.0516 399.469 -7.09817C402.096 23.2905 403.884 50.5052 399.149 75.798C396.544 89.7157 392.192 101.892 385.847 113.021C378.785 125.405 369.45 136.195 357.306 146.004C346.732 154.744 327.333 163.888 301.206 172.448C276.212 180.636 246.189 187.814 216.667 192.661C188.52 197.273 161.806 199.676 138.804 199.676ZM352.642 -73.5562C348.08 -73.5562 343.457 -72.5037 338.87 -70.3932C322.259 -62.7359 300.441 -54.7861 279.011 -48.5859C252.299 -40.8575 227.52 -36.2156 207.35 -35.1686C187.233 -33.7443 163.845 -25.964 143.194 -13.8205C123.443 -2.20747 109.285 11.6446 105.329 23.2276C102.874 30.4475 98.9946 39.5209 94.503 50.0268C84.101 74.3601 69.8553 107.688 58.0755 152.267C53.8819 166.425 57.7912 177.59 69.6967 185.458C82.0425 193.618 102.494 198.137 130.485 198.894C155.217 199.559 184.983 197.175 216.566 191.989C246.055 187.147 276.042 179.979 301.004 171.8C327.052 163.268 346.374 154.164 356.888 145.474C368.968 135.717 378.25 124.99 385.27 112.679C391.577 101.616 395.904 89.5079 398.496 75.6668C403.214 50.4587 401.429 23.2932 398.808 -7.04898C396.424 -35.7864 384.77 -59.5784 368.392 -69.1385C363.348 -72.08 358.042 -73.5562 352.642 -73.5562Z" fill="#7456AB"/>
</mask>
<g mask="url(#mask3)">
<path d="M138.804 199.676C135.963 199.676 133.186 199.641 130.463 199.567C102.343 198.807 81.7746 194.25 69.325 186.021C57.146 177.97 53.1437 166.554 57.4276 152.089C69.2183 107.474 83.475 74.1195 93.8852 49.7671C98.3713 39.2721 102.245 30.2096 104.692 23.0143C108.7 11.281 122.967 -2.70228 142.853 -14.3946C163.591 -26.5873 187.085 -34.4031 207.309 -35.8329C227.436 -36.8799 252.162 -41.5109 278.825 -49.2256C300.225 -55.4176 322.008 -63.3538 338.591 -70.9974C348.81 -75.6995 359.231 -75.2566 368.725 -69.7125C385.289 -60.0432 397.069 -36.0516 399.469 -7.09817C402.096 23.2905 403.884 50.5052 399.149 75.798C396.544 89.7157 392.192 101.892 385.847 113.021C378.785 125.405 369.45 136.195 357.306 146.004C346.732 154.744 327.333 163.888 301.206 172.448C276.212 180.636 246.189 187.814 216.667 192.661C188.52 197.273 161.806 199.676 138.804 199.676ZM352.642 -73.5562C348.08 -73.5562 343.457 -72.5037 338.87 -70.3932C322.259 -62.7359 300.441 -54.7861 279.011 -48.5859C252.299 -40.8575 227.52 -36.2156 207.35 -35.1686C187.233 -33.7443 163.845 -25.964 143.194 -13.8205C123.443 -2.20747 109.285 11.6446 105.329 23.2276C102.874 30.4475 98.9946 39.5209 94.503 50.0268C84.101 74.3601 69.8553 107.688 58.0755 152.267C53.8819 166.425 57.7912 177.59 69.6967 185.458C82.0425 193.618 102.494 198.137 130.485 198.894C155.217 199.559 184.983 197.175 216.566 191.989C246.055 187.147 276.042 179.979 301.004 171.8C327.052 163.268 346.374 154.164 356.888 145.474C368.968 135.717 378.25 124.99 385.27 112.679C391.577 101.616 395.904 89.5079 398.496 75.6668C403.214 50.4587 401.429 23.2932 398.808 -7.04898C396.424 -35.7864 384.77 -59.5784 368.392 -69.1385C363.348 -72.08 358.042 -73.5562 352.642 -73.5562Z" fill="#A06BFF"/>
</g>
<mask id="mask4" style="mask-type:alpha" maskUnits="userSpaceOnUse" x="72" y="-63" width="311" height="249">
<path d="M143.55 185.985C142.136 185.985 140.742 185.975 139.362 185.953C114.337 185.564 96.0286 181.764 84.9459 174.657C74.358 167.866 70.7303 158.186 74.1694 145.881C83.1553 106.58 95.9412 74.1522 105.277 50.475C108.979 41.0872 112.177 32.9788 114.405 26.3057C118.342 14.586 130.955 1.51853 149.009 -9.54779C167.443 -20.8465 188.868 -28.2659 207.794 -29.9007C245.304 -32.167 295.047 -46.9595 325.395 -59.7426C334.534 -63.5808 343.832 -62.9029 352.282 -57.7825C367.052 -48.8321 377.566 -27.3665 379.718 -1.75927V-1.76197C382.028 24.1487 383.737 49.3213 379.354 72.4518C376.992 84.9205 373.078 95.8556 367.391 105.875C361.074 117.007 352.749 126.723 341.945 135.583C332.415 143.656 315.02 152.128 291.647 160.077C269.396 167.645 242.597 174.353 216.186 178.968C189.808 183.574 164.808 185.985 143.55 185.985ZM337.093 -61.5742C333.298 -61.5742 329.455 -60.776 325.638 -59.174C295.244 -46.3717 245.416 -31.5547 207.843 -29.2856C189.018 -27.659 167.692 -20.2724 149.337 -9.02016C131.404 1.97235 118.888 14.9195 114.998 26.5025C112.765 33.1893 109.564 41.3059 105.859 50.7019C96.5289 74.36 83.754 106.763 74.7735 146.034C71.4137 158.06 74.9512 167.508 85.2849 174.135C96.2692 181.179 114.468 184.947 139.375 185.332C161.464 185.668 187.99 183.263 216.082 178.353C242.461 173.744 269.227 167.046 291.45 159.487C314.752 151.562 332.076 143.131 341.552 135.104C352.301 126.293 360.576 116.632 366.855 105.569C372.509 95.6096 376.399 84.7374 378.75 72.337C383.119 49.2858 381.41 24.1597 379.106 -1.70457V-1.70731C376.97 -27.1205 366.574 -48.4029 351.967 -57.2521C347.216 -60.1281 342.197 -61.5742 337.093 -61.5742Z" fill="#7456AB"/>
</mask>
<g mask="url(#mask4)">
<path d="M143.55 185.985C142.136 185.985 140.742 185.975 139.362 185.953C114.337 185.564 96.0286 181.764 84.9459 174.657C74.358 167.866 70.7303 158.186 74.1694 145.881C83.1553 106.58 95.9412 74.1522 105.277 50.475C108.979 41.0872 112.177 32.9788 114.405 26.3057C118.342 14.586 130.955 1.51853 149.009 -9.54779C167.443 -20.8465 188.868 -28.2659 207.794 -29.9007C245.304 -32.167 295.047 -46.9595 325.395 -59.7426C334.534 -63.5808 343.832 -62.9029 352.282 -57.7825C367.052 -48.8321 377.566 -27.3665 379.718 -1.75927V-1.76197C382.028 24.1487 383.737 49.3213 379.354 72.4518C376.992 84.9205 373.078 95.8556 367.391 105.875C361.074 117.007 352.749 126.723 341.945 135.583C332.415 143.656 315.02 152.128 291.647 160.077C269.396 167.645 242.597 174.353 216.186 178.968C189.808 183.574 164.808 185.985 143.55 185.985ZM337.093 -61.5742C333.298 -61.5742 329.455 -60.776 325.638 -59.174C295.244 -46.3717 245.416 -31.5547 207.843 -29.2856C189.018 -27.659 167.692 -20.2724 149.337 -9.02016C131.404 1.97235 118.888 14.9195 114.998 26.5025C112.765 33.1893 109.564 41.3059 105.859 50.7019C96.5289 74.36 83.754 106.763 74.7735 146.034C71.4137 158.06 74.9512 167.508 85.2849 174.135C96.2692 181.179 114.468 184.947 139.375 185.332C161.464 185.668 187.99 183.263 216.082 178.353C242.461 173.744 269.227 167.046 291.45 159.487C314.752 151.562 332.076 143.131 341.552 135.104C352.301 126.293 360.576 116.632 366.855 105.569C372.509 95.6096 376.399 84.7374 378.75 72.337C383.119 49.2858 381.41 24.1597 379.106 -1.70457V-1.70731C376.97 -27.1205 366.574 -48.4029 351.967 -57.2521C347.216 -60.1281 342.197 -61.5742 337.093 -61.5742Z" fill="#A06BFF"/>
</g>
<mask id="mask5" style="mask-type:alpha" maskUnits="userSpaceOnUse" x="90" y="-51" width="273" height="224">
<path d="M148.402 172.366C148.35 172.366 148.298 172.366 148.247 172.366C126.316 172.352 110.269 169.31 100.553 163.325C91.5562 157.787 88.314 149.829 90.9165 139.675C97.0976 104.976 108.79 72.5887 117.328 48.9415C120.001 41.5357 122.311 35.1414 124.129 29.5973C127.937 18.0553 139.255 5.55379 155.174 -4.70059C171.322 -15.1026 190.683 -22.1284 208.288 -23.971C224.497 -25.1192 243.606 -28.4817 265.096 -33.9602C281.261 -38.0827 298.432 -43.378 312.21 -48.4902C320.275 -51.4673 328.454 -50.5515 335.871 -45.8384C348.84 -37.5988 358.075 -18.662 359.972 3.58272C361.978 25.2451 363.597 48.1487 359.565 69.1113C357.443 80.1339 353.969 89.8224 348.938 98.7372C343.364 108.614 336.051 117.261 326.584 125.167C309.761 139.853 265.192 155.982 215.689 165.299C191.115 169.925 167.853 172.366 148.402 172.366ZM321.497 -49.6275C318.481 -49.6275 315.433 -49.0698 312.404 -47.9517C298.61 -42.834 281.414 -37.5305 265.233 -33.4052C243.713 -27.9186 224.568 -24.5533 208.335 -23.4024C190.825 -21.568 171.557 -14.5777 155.48 -4.22218C139.668 5.96386 128.438 18.3561 124.668 29.775C122.847 35.3246 120.537 41.7243 117.861 49.1329C109.328 72.7609 97.6471 105.121 91.4715 139.793C88.9345 149.697 92.0921 157.442 100.851 162.836C110.477 168.763 126.423 171.778 148.247 171.792C148.298 171.792 148.35 171.792 148.402 171.792C167.82 171.792 191.044 169.353 215.582 164.733C264.995 155.433 309.452 139.356 326.212 124.727C335.63 116.862 342.899 108.267 348.441 98.4501C353.438 89.5927 356.894 79.9589 359.004 68.9992C363.023 48.1104 361.404 25.2534 359.403 3.62921V3.62647C357.52 -18.446 348.386 -37.2161 335.565 -45.36C331.09 -48.1977 326.333 -49.6275 321.497 -49.6275Z" fill="#7456AB"/>
</mask>
<g mask="url(#mask5)">
<path d="M148.402 172.366C148.35 172.366 148.298 172.366 148.247 172.366C126.316 172.352 110.269 169.31 100.553 163.325C91.5562 157.787 88.314 149.829 90.9165 139.675C97.0976 104.976 108.79 72.5887 117.328 48.9415C120.001 41.5357 122.311 35.1414 124.129 29.5973C127.937 18.0553 139.255 5.55379 155.174 -4.70059C171.322 -15.1026 190.683 -22.1284 208.288 -23.971C224.497 -25.1192 243.606 -28.4817 265.096 -33.9602C281.261 -38.0827 298.432 -43.378 312.21 -48.4902C320.275 -51.4673 328.454 -50.5515 335.871 -45.8384C348.84 -37.5988 358.075 -18.662 359.972 3.58272C361.978 25.2451 363.597 48.1487 359.565 69.1113C357.443 80.1339 353.969 89.8224 348.938 98.7372C343.364 108.614 336.051 117.261 326.584 125.167C309.761 139.853 265.192 155.982 215.689 165.299C191.115 169.925 167.853 172.366 148.402 172.366ZM321.497 -49.6275C318.481 -49.6275 315.433 -49.0698 312.404 -47.9517C298.61 -42.834 281.414 -37.5305 265.233 -33.4052C243.713 -27.9186 224.568 -24.5533 208.335 -23.4024C190.825 -21.568 171.557 -14.5777 155.48 -4.22218C139.668 5.96386 128.438 18.3561 124.668 29.775C122.847 35.3246 120.537 41.7243 117.861 49.1329C109.328 72.7609 97.6471 105.121 91.4715 139.793C88.9345 149.697 92.0921 157.442 100.851 162.836C110.477 168.763 126.423 171.778 148.247 171.792C148.298 171.792 148.35 171.792 148.402 171.792C167.82 171.792 191.044 169.353 215.582 164.733C264.995 155.433 309.452 139.356 326.212 124.727C335.63 116.862 342.899 108.267 348.441 98.4501C353.438 89.5927 356.894 79.9589 359.004 68.9992C363.023 48.1104 361.404 25.2534 359.403 3.62921V3.62647C357.52 -18.446 348.386 -37.2161 335.565 -45.36C331.09 -48.1977 326.333 -49.6275 321.497 -49.6275Z" fill="#A06BFF"/>
</g>
<mask id="mask6" style="mask-type:alpha" maskUnits="userSpaceOnUse" x="107" y="-39" width="236" height="198">
<path d="M153.312 158.858C136.407 158.858 123.908 156.57 116.127 152.046C108.73 147.743 105.878 141.501 107.653 133.489C110.766 102.635 122.035 68.6217 130.264 43.7827C131.554 39.8843 132.773 36.2046 133.842 32.8913C137.585 21.3438 147.347 9.71712 161.33 0.148911C175.431 -9.49584 192.279 -15.9558 208.772 -18.0389C220.175 -19.0012 251.772 -22.7929 299.017 -37.2327C306.018 -39.3541 313.096 -38.195 319.485 -33.8729C330.628 -26.3359 338.572 -9.93599 340.218 8.92432C341.932 26.579 343.452 46.9866 339.767 65.7704C335.874 85.6231 326.535 101.643 311.218 114.751C303.765 121.504 290.373 128.639 272.497 135.386C255.471 141.81 235.648 147.439 215.172 151.663C194.026 156.023 173.947 158.5 157.104 158.823C155.819 158.847 154.553 158.858 153.312 158.858ZM305.84 -37.7412C303.626 -37.7412 301.393 -37.405 299.17 -36.7324C291.611 -34.4224 276.255 -29.9308 258.344 -25.8165C239.538 -21.4944 222.881 -18.7032 208.83 -17.5195C192.427 -15.4473 175.661 -9.02018 161.628 0.580837C147.741 10.0834 138.05 21.6145 134.343 33.0526C133.274 36.3659 132.054 40.0483 130.764 43.9494C122.541 68.7694 111.28 102.758 108.175 133.56L108.169 133.59C106.442 141.362 109.208 147.42 116.393 151.597C124.545 156.338 138.621 158.659 157.098 158.303C173.911 157.981 193.955 155.509 215.071 151.154C235.52 146.936 255.318 141.316 272.319 134.902C290.135 128.18 303.467 121.077 310.879 114.366C326.109 101.334 335.39 85.4071 339.261 65.6775C342.932 46.962 341.415 26.5982 339.704 8.98172V8.97898C338.072 -9.73097 330.215 -25.9805 319.198 -33.4328C314.968 -36.295 310.441 -37.7412 305.84 -37.7412Z" fill="#7456AB"/>
</mask>
<g mask="url(#mask6)">
<path d="M153.312 158.858C136.407 158.858 123.908 156.57 116.127 152.046C108.73 147.743 105.878 141.501 107.653 133.489C110.766 102.635 122.035 68.6217 130.264 43.7827C131.554 39.8843 132.773 36.2046 133.842 32.8913C137.585 21.3438 147.347 9.71712 161.33 0.148911C175.431 -9.49584 192.279 -15.9558 208.772 -18.0389C220.175 -19.0012 251.772 -22.7929 299.017 -37.2327C306.018 -39.3541 313.096 -38.195 319.485 -33.8729C330.628 -26.3359 338.572 -9.93599 340.218 8.92432C341.932 26.579 343.452 46.9866 339.767 65.7704C335.874 85.6231 326.535 101.643 311.218 114.751C303.765 121.504 290.373 128.639 272.497 135.386C255.471 141.81 235.648 147.439 215.172 151.663C194.026 156.023 173.947 158.5 157.104 158.823C155.819 158.847 154.553 158.858 153.312 158.858ZM305.84 -37.7412C303.626 -37.7412 301.393 -37.405 299.17 -36.7324C291.611 -34.4224 276.255 -29.9308 258.344 -25.8165C239.538 -21.4944 222.881 -18.7032 208.83 -17.5195C192.427 -15.4473 175.661 -9.02018 161.628 0.580837C147.741 10.0834 138.05 21.6145 134.343 33.0526C133.274 36.3659 132.054 40.0483 130.764 43.9494C122.541 68.7694 111.28 102.758 108.175 133.56L108.169 133.59C106.442 141.362 109.208 147.42 116.393 151.597C124.545 156.338 138.621 158.659 157.098 158.303C173.911 157.981 193.955 155.509 215.071 151.154C235.52 146.936 255.318 141.316 272.319 134.902C290.135 128.18 303.467 121.077 310.879 114.366C326.109 101.334 335.39 85.4071 339.261 65.6775C342.932 46.962 341.415 26.5982 339.704 8.98172V8.97898C338.072 -9.73097 330.215 -25.9805 319.198 -33.4328C314.968 -36.295 310.441 -37.7412 305.84 -37.7412Z" fill="#A06BFF"/>
</g>
<mask id="mask7" style="mask-type:alpha" maskUnits="userSpaceOnUse" x="124" y="-27" width="199" height="173">
<path d="M158.733 145.52C146.729 145.52 137.456 143.932 131.669 140.853C125.857 137.762 123.41 133.202 124.394 127.297C123.511 99.5926 137.56 55.1605 143.558 36.1826C151.095 12.4835 178.113 -7.3746 209.259 -12.1068C234.019 -14.6328 263.202 -21.0243 280.638 -24.8407C282.488 -25.2453 284.227 -25.6253 285.832 -25.9752C291.789 -27.2519 297.784 -25.8276 303.161 -21.8636C312.448 -15.0182 319.077 -1.1744 320.466 14.2687C322.087 29.9578 323.148 46.6503 319.971 62.4324C316.581 79.2724 308.694 92.9796 295.854 104.338C283.235 116.326 251.359 129.568 214.647 138.07C196.995 142.157 180.155 144.673 165.948 145.345C163.449 145.463 161.041 145.52 158.733 145.52ZM290.077 -25.9561C288.697 -25.9561 287.314 -25.8084 285.93 -25.5132C284.326 -25.166 282.59 -24.786 280.739 -24.3787C263.295 -20.5596 234.095 -14.1626 209.319 -11.6366C178.354 -6.93173 151.494 12.7925 144.009 36.3275C138.014 55.2863 123.976 99.6855 124.867 127.308V127.332L124.865 127.357C123.908 133.051 126.272 137.453 131.89 140.441C138.717 144.071 150.488 145.605 165.929 144.878C180.109 144.208 196.921 141.698 214.543 137.617C251.176 129.131 282.967 115.935 295.537 103.997C324.05 78.7749 323.255 45.8684 319.999 14.3234V14.3207C318.621 -0.991219 312.062 -14.7093 302.882 -21.4754C298.867 -24.4443 294.503 -25.9561 290.077 -25.9561Z" fill="#7456AB"/>
</mask>
<g mask="url(#mask7)">
<path d="M158.733 145.52C146.729 145.52 137.456 143.932 131.669 140.853C125.857 137.762 123.41 133.202 124.394 127.297C123.511 99.5926 137.56 55.1605 143.558 36.1826C151.095 12.4835 178.113 -7.3746 209.259 -12.1068C234.019 -14.6328 263.202 -21.0243 280.638 -24.8407C282.488 -25.2453 284.227 -25.6253 285.832 -25.9752C291.789 -27.2519 297.784 -25.8276 303.161 -21.8636C312.448 -15.0182 319.077 -1.1744 320.466 14.2687C322.087 29.9578 323.148 46.6503 319.971 62.4324C316.581 79.2724 308.694 92.9796 295.854 104.338C283.235 116.326 251.359 129.568 214.647 138.07C196.995 142.157 180.155 144.673 165.948 145.345C163.449 145.463 161.041 145.52 158.733 145.52ZM290.077 -25.9561C288.697 -25.9561 287.314 -25.8084 285.93 -25.5132C284.326 -25.166 282.59 -24.786 280.739 -24.3787C263.295 -20.5596 234.095 -14.1626 209.319 -11.6366C178.354 -6.93173 151.494 12.7925 144.009 36.3275C138.014 55.2863 123.976 99.6855 124.867 127.308V127.332L124.865 127.357C123.908 133.051 126.272 137.453 131.89 140.441C138.717 144.071 150.488 145.605 165.929 144.878C180.109 144.208 196.921 141.698 214.543 137.617C251.176 129.131 282.967 115.935 295.537 103.997C324.05 78.7749 323.255 45.8684 319.999 14.3234V14.3207C318.621 -0.991219 312.062 -14.7093 302.882 -21.4754C298.867 -24.4443 294.503 -25.9561 290.077 -25.9561Z" fill="#A06BFF"/>
</g>
<mask id="mask8" style="mask-type:alpha" maskUnits="userSpaceOnUse" x="139" y="-15" width="163" height="148">
<path d="M164.37 132.499C157.033 132.499 151.15 131.624 147.191 129.842C142.929 127.92 140.893 124.987 141.139 121.124C138.777 113.584 139.217 100.727 142.443 82.9085C144.794 69.9258 148.741 54.0973 153.277 39.4798C160.59 16.0322 181.7 -1.03207 209.748 -6.16883C219.579 -7.4127 229.812 -8.90805 239.708 -10.3542C252.507 -12.2241 264.596 -13.9874 272.65 -14.7146C279.43 -15.2996 286.092 -11.8879 291.409 -5.11083C296.45 1.31354 299.84 10.324 300.717 19.6134C303.104 40.874 301.682 51.8802 300.179 59.0946C297.298 72.9165 290.857 84.3109 280.493 93.9256C269.916 104.623 244.497 116.362 214.158 124.552C194.778 129.779 177.312 132.499 164.37 132.499ZM274.142 -14.3592C273.659 -14.3592 273.175 -14.3373 272.688 -14.2963C264.645 -13.5719 252.565 -11.8086 239.771 -9.93868C229.872 -8.49252 219.636 -6.9999 209.814 -5.75603C181.935 -0.649338 160.945 16.3055 153.681 39.6C149.152 54.2038 145.207 70.0133 142.858 82.9796C139.638 100.76 139.201 113.565 141.554 121.031L141.565 121.069L141.563 121.108C141.311 124.795 143.263 127.603 147.364 129.454C158.217 134.35 183.769 132.313 214.046 124.139C244.317 115.968 269.665 104.273 280.198 93.6194C290.501 84.0621 296.898 72.7416 299.763 59.0071C302.615 45.3327 301.546 30.7946 300.294 19.6572V19.6544C299.427 10.4443 296.067 1.51309 291.075 -4.85113C286.234 -11.024 280.269 -14.3592 274.142 -14.3592Z" fill="#7456AB"/>
</mask>
<g mask="url(#mask8)">
<path d="M164.37 132.499C157.033 132.499 151.15 131.624 147.191 129.842C142.929 127.92 140.893 124.987 141.139 121.124C138.777 113.584 139.217 100.727 142.443 82.9085C144.794 69.9258 148.741 54.0973 153.277 39.4798C160.59 16.0322 181.7 -1.03207 209.748 -6.16883C219.579 -7.4127 229.812 -8.90805 239.708 -10.3542C252.507 -12.2241 264.596 -13.9874 272.65 -14.7146C279.43 -15.2996 286.092 -11.8879 291.409 -5.11083C296.45 1.31354 299.84 10.324 300.717 19.6134C303.104 40.874 301.682 51.8802 300.179 59.0946C297.298 72.9165 290.857 84.3109 280.493 93.9256C269.916 104.623 244.497 116.362 214.158 124.552C194.778 129.779 177.312 132.499 164.37 132.499ZM274.142 -14.3592C273.659 -14.3592 273.175 -14.3373 272.688 -14.2963C264.645 -13.5719 252.565 -11.8086 239.771 -9.93868C229.872 -8.49252 219.636 -6.9999 209.814 -5.75603C181.935 -0.649338 160.945 16.3055 153.681 39.6C149.152 54.2038 145.207 70.0133 142.858 82.9796C139.638 100.76 139.201 113.565 141.554 121.031L141.565 121.069L141.563 121.108C141.311 124.795 143.263 127.603 147.364 129.454C158.217 134.35 183.769 132.313 214.046 124.139C244.317 115.968 269.665 104.273 280.198 93.6194C290.501 84.0621 296.898 72.7416 299.763 59.0071C302.615 45.3327 301.546 30.7946 300.294 19.6572V19.6544C299.427 10.4443 296.067 1.51309 291.075 -4.85113C286.234 -11.024 280.269 -14.3592 274.142 -14.3592Z" fill="#A06BFF"/>
</g>
<mask id="mask9" style="mask-type:alpha" maskUnits="userSpaceOnUse" x="153" y="-4" width="130" height="125">
<path d="M170.464 120.088C167.429 120.088 164.868 119.812 162.88 119.246C159.974 118.415 158.299 116.982 157.902 114.984C152.407 110.749 152.768 96.3749 154.042 85.0434C155.48 72.2631 158.826 56.4618 162.992 42.7684C166.593 30.9885 172.09 21.8085 179.802 14.7007C187.678 7.44254 197.632 2.55728 210.235 -0.239372C229.319 -3.35041 248.644 -4.61068 259.476 -3.45156C264.749 -2.8638 269.883 0.553437 273.932 6.16588C277.718 11.4175 280.282 18.2656 280.963 24.9551C283.197 42.6208 283.415 65.2373 265.129 83.5071C256.665 92.8456 237.54 103.155 213.977 111.072C196.76 116.856 180.852 120.085 170.464 120.088ZM250.047 -3.50352C239.155 -3.50352 224.664 -2.21317 210.309 0.126945C197.783 2.90446 187.886 7.76239 180.059 14.9741C172.397 22.0354 166.932 31.1608 163.353 42.875C155.562 68.4658 148.81 107.676 158.187 114.727L158.244 114.771L158.258 114.842C158.599 116.725 160.19 118.084 162.984 118.882C171.71 121.375 191.681 118.169 213.863 110.714C237.368 102.816 256.436 92.5477 264.864 83.2446C283.041 65.0842 282.819 42.5743 280.597 24.9934V24.9879C279.921 18.3612 277.385 11.576 273.634 6.37635C269.648 0.848658 264.607 -2.51115 259.44 -3.08798C256.777 -3.36682 253.603 -3.50352 250.047 -3.50352Z" fill="#7456AB"/>
</mask>
<g mask="url(#mask9)">
<path d="M170.464 120.088C167.429 120.088 164.868 119.812 162.88 119.246C159.974 118.415 158.299 116.982 157.902 114.984C152.407 110.749 152.768 96.3749 154.042 85.0434C155.48 72.2631 158.826 56.4618 162.992 42.7684C166.593 30.9885 172.09 21.8085 179.802 14.7007C187.678 7.44254 197.632 2.55728 210.235 -0.239372C229.319 -3.35041 248.644 -4.61068 259.476 -3.45156C264.749 -2.8638 269.883 0.553437 273.932 6.16588C277.718 11.4175 280.282 18.2656 280.963 24.9551C283.197 42.6208 283.415 65.2373 265.129 83.5071C256.665 92.8456 237.54 103.155 213.977 111.072C196.76 116.856 180.852 120.085 170.464 120.088ZM250.047 -3.50352C239.155 -3.50352 224.664 -2.21317 210.309 0.126945C197.783 2.90446 187.886 7.76239 180.059 14.9741C172.397 22.0354 166.932 31.1608 163.353 42.875C155.562 68.4658 148.81 107.676 158.187 114.727L158.244 114.771L158.258 114.842C158.599 116.725 160.19 118.084 162.984 118.882C171.71 121.375 191.681 118.169 213.863 110.714C237.368 102.816 256.436 92.5477 264.864 83.2446C283.041 65.0842 282.819 42.5743 280.597 24.9934V24.9879C279.921 18.3612 277.385 11.576 273.634 6.37635C269.648 0.848658 264.607 -2.51115 259.44 -3.08798C256.777 -3.36682 253.603 -3.50352 250.047 -3.50352Z" fill="#A06BFF"/>
</g>
<mask id="mask10" style="mask-type:alpha" maskUnits="userSpaceOnUse" x="165" y="4" width="97" height="106">
<path d="M177.776 109.342C176.467 109.342 175.447 109.175 174.767 108.828C172.582 109.145 170.753 108.47 169.329 106.829C165.16 102.029 165.234 90.0604 166.029 80.8612C166.975 69.9179 169.477 56.9051 172.716 46.0575C176.388 33.7856 180.475 25.6089 185.97 19.5509C191.828 13.0882 199.699 8.68408 210.732 5.6906C223.332 2.89122 237.299 3.72776 246.318 7.82022C254.401 11.53 260.244 22.1589 261.219 30.2919C263.781 47.0991 259.929 61.4979 249.776 73.0836C246.003 77.824 240.126 82.7666 232.315 87.7722C225.552 92.1052 217.517 96.348 209.073 100.039C195.852 105.823 183.783 109.342 177.776 109.342ZM174.821 108.491L174.868 108.516C175.518 108.863 176.508 109.027 177.785 109.027C191.005 109.027 234.912 91.2304 249.522 72.8786C259.615 61.3612 263.439 47.0526 260.891 30.3411V30.3356C259.926 22.2901 254.158 11.7787 246.176 8.11546C237.217 4.05034 223.329 3.22201 210.8 6.00499C199.835 8.97934 192.017 13.3507 186.199 19.7668C180.74 25.7893 176.675 33.9251 173.017 46.1478C169.783 56.979 167.29 69.9644 166.344 80.8886C165.554 90.0248 165.472 101.903 169.564 106.616C170.923 108.18 172.673 108.814 174.764 108.497L174.821 108.491Z" fill="#7456AB"/>
</mask>
<g mask="url(#mask10)">
<path d="M177.776 109.342C176.467 109.342 175.447 109.175 174.767 108.828C172.582 109.145 170.753 108.47 169.329 106.829C165.16 102.029 165.234 90.0604 166.029 80.8612C166.975 69.9179 169.477 56.9051 172.716 46.0575C176.388 33.7856 180.475 25.6089 185.97 19.5509C191.828 13.0882 199.699 8.68408 210.732 5.6906C223.332 2.89122 237.299 3.72776 246.318 7.82022C254.401 11.53 260.244 22.1589 261.219 30.2919C263.781 47.0991 259.929 61.4979 249.776 73.0836C246.003 77.824 240.126 82.7666 232.315 87.7722C225.552 92.1052 217.517 96.348 209.073 100.039C195.852 105.823 183.783 109.342 177.776 109.342ZM174.821 108.491L174.868 108.516C175.518 108.863 176.508 109.027 177.785 109.027C191.005 109.027 234.912 91.2304 249.522 72.8786C259.615 61.3612 263.439 47.0526 260.891 30.3411V30.3356C259.926 22.2901 254.158 11.7787 246.176 8.11546C237.217 4.05034 223.329 3.22201 210.8 6.00499C199.835 8.97934 192.017 13.3507 186.199 19.7668C180.74 25.7893 176.675 33.9251 173.017 46.1478C169.783 56.979 167.29 69.9644 166.344 80.8886C165.554 90.0248 165.472 101.903 169.564 106.616C170.923 108.18 172.673 108.814 174.764 108.497L174.821 108.491Z" fill="#A06BFF"/>
</g>
<mask id="mask11" style="mask-type:alpha" maskUnits="userSpaceOnUse" x="177" y="10" width="65" height="95">
<path d="M185.633 104.631C184.324 104.631 183.151 104.243 182.123 103.461C179.545 101.506 176.595 96.0471 177.17 81.1507C177.555 71.1643 179.521 59.2778 182.427 49.3515C185.86 37.6209 188.228 30.0866 192.121 24.4113C196.147 18.5391 201.678 14.8349 211.213 11.6309C216.468 9.86486 221.451 10.2886 226.022 12.8884C235.905 18.5145 240.782 32.4786 241.46 35.6334C242.725 41.5274 241.752 48.0803 238.565 55.1115C235.82 61.1641 231.438 67.5857 225.536 74.2042C214.868 86.1645 201.003 96.695 191.585 102.562C189.368 103.939 187.38 104.631 185.633 104.631ZM217.435 10.8326C215.44 10.8326 213.395 11.1825 211.301 11.8878C201.828 15.0727 196.336 18.7441 192.345 24.5643C188.476 30.2096 186.114 37.722 182.689 49.428C177.391 67.5256 174.198 97.1051 182.287 103.245C184.584 104.989 187.662 104.68 191.437 102.329C200.839 96.4735 214.68 85.9622 225.328 74.0211C231.211 67.4245 235.579 61.0247 238.31 54.9967C241.473 48.0201 242.441 41.5247 241.189 35.6908C240.517 32.5607 235.678 18.7004 225.883 13.1262C223.206 11.5981 220.38 10.8326 217.435 10.8326Z" fill="#7456AB"/>
</mask>
<g mask="url(#mask11)">
<path d="M185.633 104.631C184.324 104.631 183.151 104.243 182.123 103.461C179.545 101.506 176.595 96.0471 177.17 81.1507C177.555 71.1643 179.521 59.2778 182.427 49.3515C185.86 37.6209 188.228 30.0866 192.121 24.4113C196.147 18.5391 201.678 14.8349 211.213 11.6309C216.468 9.86486 221.451 10.2886 226.022 12.8884C235.905 18.5145 240.782 32.4786 241.46 35.6334C242.725 41.5274 241.752 48.0803 238.565 55.1115C235.82 61.1641 231.438 67.5857 225.536 74.2042C214.868 86.1645 201.003 96.695 191.585 102.562C189.368 103.939 187.38 104.631 185.633 104.631ZM217.435 10.8326C215.44 10.8326 213.395 11.1825 211.301 11.8878C201.828 15.0727 196.336 18.7441 192.345 24.5643C188.476 30.2096 186.114 37.722 182.689 49.428C177.391 67.5256 174.198 97.1051 182.287 103.245C184.584 104.989 187.662 104.68 191.437 102.329C200.839 96.4735 214.68 85.9622 225.328 74.0211C231.211 67.4245 235.579 61.0247 238.31 54.9967C241.473 48.0201 242.441 41.5247 241.189 35.6908C240.517 32.5607 235.678 18.7004 225.883 13.1262C223.206 11.5981 220.38 10.8326 217.435 10.8326Z" fill="#A06BFF"/>
</g>
</g>
<defs>
<filter id="filter0_d" x="0.241211" y="-296" width="822.604" height="545" filterUnits="userSpaceOnUse" color-interpolation-filters="sRGB">
<feFlood flood-opacity="0" result="BackgroundImageFix"/>
<feColorMatrix in="SourceAlpha" type="matrix" values="0 0 0 0 0 0 0 0 0 0 0 0 0 0 0 0 0 0 127 0" result="hardAlpha"/>
<feOffset dy="4"/>
<feGaussianBlur stdDeviation="2"/>
<feComposite in2="hardAlpha" operator="out"/>
<feColorMatrix type="matrix" values="0 0 0 0 0 0 0 0 0 0 0 0 0 0 0 0 0 0 0.25 0"/>
<feBlend mode="normal" in2="BackgroundImageFix" result="effect1_dropShadow"/>
<feBlend mode="normal" in="SourceGraphic" in2="effect1_dropShadow" result="shape"/>
</filter>
</defs>
</svg>
