<svg width="103" height="104" viewBox="0 0 103 104" fill="none" xmlns="http://www.w3.org/2000/svg">
<g clip-path="url(#clip0)" filter="url(#filter0_d)">
<path d="M94.4147 95.3157C90.8238 93.9986 87.3791 92.5117 83.9221 90.8671C80.8046 89.5144 77.0559 88.2091 74.3526 86.0316C72.8372 84.8759 74.0558 82.086 75.9972 82.5748C75.9972 82.5748 76.1551 82.563 76.1669 82.7208C76.6167 82.3695 76.9089 82.0301 77.3465 81.521C77.3346 81.3632 77.4684 81.0357 77.4566 80.8779C77.5907 80.5503 77.8826 80.2109 78.1747 79.8715C72.9567 71.6931 68.0544 63.4909 62.0948 56.0032C60.3384 53.7544 58.4359 51.6755 56.2301 49.778C51.785 58.207 44.278 68.1361 34.2043 67.1478C20.9265 65.7657 26.9724 51.1851 33.4028 45.9396C41.0128 39.4947 47.981 39.288 55.3409 44.2897C58.0938 38.6861 59.8526 32.5228 59.0975 26.7067C57.5676 12.6957 44.7633 11.2781 34.4619 15.7035C36.3488 19.6883 37.1783 24.3872 36.54 28.5622C35.5197 36.0988 24.6546 43.5822 17.6341 38.8724C10.7715 34.1508 21.9271 19.9793 25.671 16.9992C26.7164 16.127 27.9197 15.2432 29.1349 14.5169C28.9652 14.3709 28.9533 14.2129 28.7836 14.0672C20.6689 3.24963 11.7773 13.759 7.96354 22.1406C7.42719 23.4507 5.60799 22.4764 5.98651 21.1782C8.98743 12.5404 15.6694 2.19717 26.0398 7.13112C28.5141 8.37351 30.7202 10.2709 32.3305 12.6894C40.7499 8.56429 50.8511 7.80458 57.7575 15.2211C66.0454 24.121 62.2367 36.7876 57.8747 46.3214C58.0442 46.4674 58.0442 46.4674 58.2141 46.6134C67.8632 54.6173 74.313 66.5123 80.8257 77.1329C81.8712 76.2607 83.0747 75.3765 84.1199 74.5043C84.8737 73.9715 85.9903 74.0462 86.6689 74.6301C91.6495 79.652 95.6083 85.8617 97.2473 92.8809C97.8513 94.5811 96.2105 95.9743 94.4147 95.3157ZM49.3674 45.0566C43.1088 42.0355 37.4319 46.7479 33.3213 51.1838C27.8853 56.9891 30.1164 65.5509 38.982 63.1379C43.4878 61.8467 46.8092 57.4702 49.5587 53.9303C51.0064 52.0755 52.4306 49.9053 53.6849 47.5889C52.3391 46.5788 50.8472 45.7387 49.3674 45.0566ZM31.1086 17.5429C31.1086 17.5429 30.9508 17.5547 31.1086 17.5429C27.0134 20.0727 24.0943 23.4669 21.8658 27.6022C20.8916 29.4214 20.0871 31.3866 19.7679 33.4739C18.5932 38.9588 26.9141 35.6347 29.0406 34.3637C34.7888 30.5983 33.7455 23.0582 31.1086 17.5429ZM85.0835 78.8758C84.9257 78.8876 84.9376 79.0455 84.7798 79.0573C84.8154 79.5308 84.5351 80.0281 83.9278 80.3912C82.8586 80.9477 81.8013 81.6621 80.7437 82.3766C80.2939 82.7278 79.4182 83.746 79.3945 83.4304C79.4063 83.5882 79.2604 83.7579 79.1025 83.7698C80.9096 84.5862 82.7409 85.7182 84.548 86.5346C86.8526 87.631 89.3149 88.7156 91.7776 89.8001C90.3765 85.9375 88.028 82.1461 85.0835 78.8758Z" fill="#08082A"/>
</g>
<defs>
<filter id="filter0_d" x="-3.75278" y="0.246704" width="109.857" height="109.857" filterUnits="userSpaceOnUse" color-interpolation-filters="sRGB">
<feFlood flood-opacity="0" result="BackgroundImageFix"/>
<feColorMatrix in="SourceAlpha" type="matrix" values="0 0 0 0 0 0 0 0 0 0 0 0 0 0 0 0 0 0 127 0" result="hardAlpha"/>
<feOffset dy="4"/>
<feGaussianBlur stdDeviation="2"/>
<feComposite in2="hardAlpha" operator="out"/>
<feColorMatrix type="matrix" values="0 0 0 0 0 0 0 0 0 0 0 0 0 0 0 0 0 0 0.25 0"/>
<feBlend mode="normal" in2="BackgroundImageFix" result="effect1_dropShadow"/>
<feBlend mode="normal" in="SourceGraphic" in2="effect1_dropShadow" result="shape"/>
</filter>
<clipPath id="clip0">
<rect width="95" height="95" fill="white" transform="matrix(0.997184 -0.0749985 -0.0749985 -0.997184 7.37207 102.104)"/>
</clipPath>
</defs>
</svg>
